<svg width="72" height="72" viewBox="0 0 72 72" fill="none" xmlns="http://www.w3.org/2000/svg">
  <circle cx="36" cy="36" r="32" fill="#FFFFFF" fill-opacity="0.42"/>
  <path d="M36 16C36 16 23 31 23 42C23 50 28.8 56 36 56C43.2 56 49 50 49 42C49 31 36 16 36 16Z" fill="#F9D6D8"/>
  <path d="M36 16C36 16 23 31 23 42C23 50 28.8 56 36 56C43.2 56 49 50 49 42C49 31 36 16 36 16Z" stroke="#7A3A48" stroke-width="3" stroke-linecap="round" stroke-linejoin="round"/>
  <path d="M30 43C30.9 47.4 33.4 50 37 50" stroke="#7A3A48" stroke-width="3" stroke-linecap="round"/>
  <path d="M50 20C54 22 57 25.5 58 30" stroke="#7A3A48" stroke-width="3" stroke-linecap="round"/>
</svg>
